<svg width="381" height="1080" viewBox="0 0 381 1080" fill="none" xmlns="http://www.w3.org/2000/svg">
<g style="mix-blend-mode:multiply" filter="url(#filter0_d_1627_1432)">
<path d="M-392.273 620.781L-399.369 693.99L-464.948 727.296L-523.027 687.669L-515.932 614.46L-450.353 581.154L-392.273 620.781ZM-12.1718 640.351L-19.1509 712.081L-86.065 746.034L-143.131 707.099L-136.035 633.889L-70.4561 600.584L-12.1718 640.351ZM-35.2604 864.369L-42.3558 937.578L-107.935 970.884L-165.001 931.948L-157.905 858.739L-92.3262 825.433L-35.2604 864.369ZM17.236 979.796L10.1988 1053.36L-55.2392 1086.45L-113.928 1046.4L-106.917 973.759L-40.8435 940.168L17.236 979.796ZM189.374 1175.92L124.284 1208.93L65.5949 1168.89L72.6002 1096.24L138.674 1062.65L196.349 1102L189.374 1175.92ZM-217.351 816.307L-210.255 743.098L-144.676 709.792L-87.6101 748.727L-94.6999 821.94L-160.285 855.242L-217.351 816.307ZM-395.854 694.515L-388.759 621.306L-323.179 588L-266.114 626.935L-273.209 700.144L-338.788 733.45L-395.854 694.515ZM-42.8603 299.725L-49.9557 372.934L-115.531 406.235L-172.597 367.299L-165.505 294.095L-99.926 260.79L-42.8603 299.725ZM-64.9257 524.433L-72.0212 597.642L-137.6 630.948L-194.666 592.012L-187.571 518.803L-121.992 485.497L-64.9257 524.433ZM-269.085 701.084L-261.99 627.875L-196.411 594.569L-139.345 633.505L-146.44 706.714L-212.02 740.02L-269.085 701.084ZM-270.83 703.641L-213.764 742.577L-220.859 815.786L-286.439 849.092L-343.504 810.156L-336.409 736.947L-270.83 703.641ZM-117.276 408.791L-124.371 482L-189.95 515.306L-247.016 476.371L-239.92 403.162L-174.341 369.856L-117.276 408.791ZM-191.695 517.863L-198.79 591.072L-264.369 624.378L-321.435 585.443L-314.34 512.234L-248.76 478.928L-191.695 517.863ZM-63.1813 521.876L-120.247 482.941L-113.152 409.732L-47.5763 376.431L9.89378 415.643L2.89228 488.286L-63.1813 521.876ZM-41.2585 297.378L-98.3243 258.442L-91.229 185.233L-25.6535 151.933L32.6308 191.7L25.6555 263.424L-41.2585 297.378ZM-539.483 837.847L-598.172 797.804L-591.077 724.595L-525.497 691.289L-466.809 731.332L-473.904 804.541L-539.483 837.847ZM-470.531 803.096L-463.526 730.447L-397.452 696.856L-340.386 735.792L-347.508 809.92L-412.452 842.723L-470.531 803.096ZM-361.179 959.503L-419.868 919.46L-412.772 846.251L-412.368 846.527L-346.789 813.221L-288.709 852.848L-295.799 926.061L-361.179 959.503ZM-292.027 924.888L-285.016 852.243L-218.948 818.648L-161.883 857.584L-169.004 931.712L-233.948 964.515L-292.027 924.888ZM-182.675 1081.3L-241.364 1041.25L-234.269 968.043L-233.864 968.319L-168.285 935.013L-110.2 974.644L-117.296 1047.85L-182.675 1081.3ZM-3.35746 1203.64L-62.0463 1163.6L-54.9508 1090.39L10.6284 1057.08L69.3172 1097.13L62.2273 1170.34L-3.35746 1203.64ZM175.761 1325.85L117.072 1285.81L124.162 1212.6L189.747 1179.3L248.436 1219.34L241.34 1292.55L175.761 1325.85ZM369.79 1298.39L304.211 1331.7L245.522 1291.65L252.617 1218.45L318.197 1185.14L376.885 1225.18L369.79 1298.39ZM264.892 1069.16L323.58 1109.2L316.485 1182.41L250.906 1215.72L192.621 1175.95L199.805 1102.17L264.892 1069.16ZM137.46 1059.64L71.3829 1093.23L13.5084 1053.74L20.5982 980.531L86.183 947.229L144.462 986.992L137.46 1059.64ZM84.9074 943.863L18.9805 977.239L-38.8996 937.748L-31.8042 864.538L33.7751 831.232L92.0595 871L84.9074 943.863ZM32.5577 828.222L-33.5159 861.812L-90.5817 822.876L-83.4863 749.667L-17.9071 716.361L39.563 755.573L32.5577 828.222ZM55.357 604.628L-10.2279 637.93L-68.3073 598.303L-61.2119 525.093L4.36729 491.788L62.4467 531.415L55.357 604.628ZM77.2175 379.78L11.6383 413.086L-45.8319 373.874L-38.7365 300.665L26.8427 267.359L84.3128 306.571L77.2175 379.78ZM34.3753 189.143L-23.9091 149.376L-16.8137 76.1667L48.7655 42.8609L106.845 82.4881L99.7496 155.697L34.3753 189.143ZM174.374 46.765L108.794 80.0711L50.51 40.304L57.6055 -32.9053L123.185 -66.2112L181.264 -26.5839L174.374 46.765ZM70.4306 -182.129L129.119 -142.086L122.114 -69.4368L56.0404 -35.8466L-2.03901 -75.4739L5.05075 -148.687L70.4306 -182.129ZM-3.98855 -73.0569L54.0909 -33.4296L46.9954 39.7796L-18.5837 73.0855L-76.6632 33.4582L-69.5678 -39.7508L-3.98855 -73.0569ZM-78.4077 36.0151L-20.3282 75.6423L-27.4236 148.851L-93.0029 182.158L-151.082 142.53L-143.987 69.321L-78.4077 36.0151ZM-152.68 144.872L-94.6007 184.499L-101.696 257.708L-167.275 291.014L-225.355 251.387L-218.259 178.178L-152.68 144.872ZM-227.099 253.944L-169.02 293.571L-176.111 366.775L-241.69 400.08L-299.77 360.453L-292.675 287.244L-227.099 253.944ZM-301.514 363.01L-243.435 402.637L-250.53 475.846L-316.11 509.152L-374.189 469.525L-367.094 396.316L-301.514 363.01ZM-375.934 472.082L-317.854 511.709L-324.95 584.918L-390.529 618.224L-448.608 578.597L-441.513 505.388L-375.934 472.082Z" fill="url(#paint0_linear_1627_1432)" fill-opacity="0.5" shape-rendering="crispEdges"/>
</g>
<defs>
<filter id="filter0_d_1627_1432" x="-602.172" y="-186.129" width="983.058" height="1521.83" filterUnits="userSpaceOnUse" color-interpolation-filters="sRGB">
<feFlood flood-opacity="0" result="BackgroundImageFix"/>
<feColorMatrix in="SourceAlpha" type="matrix" values="0 0 0 0 0 0 0 0 0 0 0 0 0 0 0 0 0 0 127 0" result="hardAlpha"/>
<feOffset/>
<feGaussianBlur stdDeviation="2"/>
<feComposite in2="hardAlpha" operator="out"/>
<feColorMatrix type="matrix" values="0 0 0 0 0.960784 0 0 0 0 0.823529 0 0 0 0 0.498039 0 0 0 1 0"/>
<feBlend mode="normal" in2="BackgroundImageFix" result="effect1_dropShadow_1627_1432"/>
<feBlend mode="normal" in="SourceGraphic" in2="effect1_dropShadow_1627_1432" result="shape"/>
</filter>
<linearGradient id="paint0_linear_1627_1432" x1="76.3601" y1="1453.04" x2="106.04" y2="-3.72162" gradientUnits="userSpaceOnUse">
<stop stop-color="#27002A"/>
<stop offset="0.47" stop-color="#F9E5B6"/>
<stop offset="1" stop-color="#EEEDE6"/>
</linearGradient>
</defs>
</svg>
