<svg width="919" height="1003" viewBox="0 0 919 1003" fill="none" xmlns="http://www.w3.org/2000/svg">
<g style="mix-blend-mode:multiply" filter="url(#filter0_d_1627_1425)">
<path d="M1015.85 74.3698L980.45 9.89685L1015.85 -54.5761H1086.16L1121.56 9.89685L1086.16 74.3698H1015.85ZM690.839 272.432L656.177 209.246L692.315 143.486H761.398L796.798 207.959L761.398 272.432H690.839ZM583.654 74.3698L548.254 9.89685L583.654 -54.5761H652.737L688.137 9.89685L652.737 74.3698H583.654ZM475.234 8.60951L439.586 -56.1237L474.993 -120.336H546.041L581.193 -56.377L545.545 8.60951H475.234ZM222.506 -56.377L257.665 -120.336H328.713L363.871 -56.377L328.223 8.60951H258.402L222.506 -56.377ZM761.156 11.4445L796.556 75.9174L761.156 140.39H692.073L656.667 75.9174L692.073 11.4445H761.156ZM977.251 11.4445L1012.65 75.9174L977.251 140.39H908.168L872.768 75.9174L908.168 11.4445H977.251ZM908.168 536.507L872.768 472.034L908.168 407.568H977.251L1012.65 472.034L977.251 536.507H908.168ZM799.748 338.452L764.348 273.979L799.748 209.506H868.832L904.231 273.979L868.832 338.452H799.748ZM868.832 77.4651L904.231 141.938L868.832 206.411H799.748L764.348 141.938L799.748 77.4651H868.832ZM868.832 74.3698H799.748L764.348 9.89685L799.748 -54.5761H868.832L904.231 9.89685L868.832 74.3698ZM908.168 404.473L872.768 340L908.168 275.527H977.251L1012.65 340L977.251 404.473H908.168ZM908.168 272.432L872.768 207.959L908.168 143.486H977.251L1012.65 207.959L977.251 272.432H908.168ZM799.748 341.548H868.832L904.231 406.02L868.832 470.487H799.259L764.1 406.534L799.748 341.548ZM908.168 539.349H977.251L1012.65 603.822L977.251 668.288H906.693L872.03 605.109L908.168 539.349ZM1015.11 -187.905H1086.16L1121.56 -123.432L1086.16 -58.9587H1015.11L979.712 -123.432L1015.11 -187.905ZM977.74 -120.336L1012.9 -56.377L977.251 8.60951H908.168L872.272 -56.6373L907.43 -120.336H977.74ZM799.259 -187.905H870.307L905.707 -123.432H905.217L869.817 -58.9587H799.507L764.1 -123.432L799.259 -187.905ZM761.646 -120.336L796.798 -56.377L761.156 8.60951H692.073L656.177 -56.6373L691.336 -120.336H761.646ZM583.164 -187.905H654.212L689.612 -123.432H689.123L653.723 -58.9587H583.406L548.006 -123.432L583.164 -187.905ZM366.084 -187.905H437.132L472.532 -123.432L437.132 -58.9587H366.084L330.677 -123.432L366.084 -187.905ZM149.245 -187.905H220.293L255.7 -123.432L220.293 -58.9587H149.245L113.845 -123.432L149.245 -187.905ZM4.44678 -55.8635L39.8467 -120.336H110.895L146.295 -55.8635L110.895 8.60951H39.8467L4.44678 -55.8635ZM220.293 74.3698H149.245L113.845 9.89685L149.245 -54.5761H219.804L255.452 10.4174L220.293 74.3698ZM330.926 10.4174L366.574 -54.5761H436.636L472.042 9.89685L436.636 74.3698H366.084L330.926 10.4174ZM439.586 76.431L475.234 11.7048H545.303L580.703 76.1777L545.303 140.651H474.745L439.586 76.431ZM548.006 142.452L583.654 77.4651H652.737L688.137 141.938L652.737 206.411H583.164L548.006 142.452ZM655.191 340L690.598 275.527H760.908L796.308 340L760.908 404.473H690.598L655.191 340ZM763.859 538.055L799.259 473.582H868.832L904.231 538.055L868.832 602.528H799.259L763.859 538.055ZM906.693 671.383H977.251L1012.65 735.856L977.251 800.329H906.941L871.541 735.856L906.693 671.383ZM871.293 867.898L906.693 803.425H977.251L1012.65 867.898L977.251 932.371H906.941L871.293 867.898ZM1086.16 998.391H1015.11L979.953 934.432L1015.6 869.445H1085.91L1121.32 933.918L1086.16 998.391ZM1086.16 866.35H1015.85L980.45 801.877L1015.85 737.404H1086.16L1121.56 801.877L1086.16 866.35ZM1086.16 734.309H1015.85L980.45 669.836L1015.85 605.363H1086.16L1121.56 669.836L1086.16 734.309ZM1086.16 602.528H1015.85L980.45 538.055L1015.85 473.582H1086.16L1121.56 538.055L1086.16 602.528ZM1086.16 470.487H1015.85L980.45 406.02L1015.85 341.548H1086.16L1121.56 406.02L1086.16 470.487ZM1086.16 338.452H1015.85L980.45 273.979L1015.85 209.506H1086.16L1121.56 273.979L1086.16 338.452ZM1086.16 206.411H1015.85L980.45 141.938L1015.85 77.4651H1086.16L1121.56 141.938L1086.16 206.411Z" fill="url(#paint0_linear_1627_1425)" fill-opacity="0.5" shape-rendering="crispEdges"/>
</g>
<defs>
<filter id="filter0_d_1627_1425" x="0.447266" y="-191.904" width="1125.11" height="1194.3" filterUnits="userSpaceOnUse" color-interpolation-filters="sRGB">
<feFlood flood-opacity="0" result="BackgroundImageFix"/>
<feColorMatrix in="SourceAlpha" type="matrix" values="0 0 0 0 0 0 0 0 0 0 0 0 0 0 0 0 0 0 127 0" result="hardAlpha"/>
<feOffset/>
<feGaussianBlur stdDeviation="2"/>
<feComposite in2="hardAlpha" operator="out"/>
<feColorMatrix type="matrix" values="0 0 0 0 0.960784 0 0 0 0 0.823529 0 0 0 0 0.498039 0 0 0 1 0"/>
<feBlend mode="normal" in2="BackgroundImageFix" result="effect1_dropShadow_1627_1425"/>
<feBlend mode="normal" in="SourceGraphic" in2="effect1_dropShadow_1627_1425" result="shape"/>
</filter>
<linearGradient id="paint0_linear_1627_1425" x1="159.67" y1="-348.992" x2="956.194" y2="871.089" gradientUnits="userSpaceOnUse">
<stop stop-color="#27002A"/>
<stop offset="0.47" stop-color="#F9E5B6"/>
<stop offset="1" stop-color="#EEEDE6"/>
</linearGradient>
</defs>
</svg>
